<?xml version="1.0" encoding="UTF-8"?>
<svg height="272pt" viewBox="0 0 924 272" width="924pt" xmlns="http://www.w3.org/2000/svg">
 <path d="m451.97 29.01c9.8-3.09 20.71-3.32 30.49-.04.09 5.22.01 10.43.06 15.65-7.87-4.32-17.95-4.96-26.1-1.1-8.21 4.17-11.23 13.86-11.88 22.43-.53 9.21-.14 18.45-.25 27.67 11.23.01 22.47 0 33.71.01v14.37c-11.24.01-22.48-.02-33.72.01.01 39.66 0 79.32 0 118.98-5.76.01-11.52.01-17.28.01-.01-39.67 0-79.33 0-119-7.67-.01-15.33.01-23 0 0-4.79-.01-9.58 0-14.37 7.65 0 15.3-.04 22.94.03.65-14.65-1.81-29.97 3.76-43.96 3.57-9.61 11.44-17.55 21.27-20.69z"/>
 <path d="m44.58 61.62c11.22-17.78 33.16-25.41 53.36-25.58 13.01-.13 26.24 1.3 38.4 6.15.04 6.44.02 12.88.01 19.32-13.72-7.66-29.83-10.38-45.39-9.21-10.86 1.02-22.29 4.86-29.25 13.71-6.17 7.61-6.88 18.34-4.34 27.5 2.49 8.52 9.51 14.66 16.68 19.36 16.77 10.75 35.62 18.21 51.13 30.91 8.24 6.75 15.33 15.6 17.66 26.2 2.97 13.99.35 29.65-9.07 40.73-9.09 10.85-23.08 16.16-36.75 18.18-15.06 2.4-30.49.6-45.08-3.5-4.98-1.39-9.87-3.13-14.4-5.66-.09-6.86-.02-13.72-.04-20.59 16.21 11.53 36.82 16.68 56.55 14.24 8.97-1.08 18.35-3.89 24.66-10.72 7.09-7.57 8.49-18.91 6.38-28.72-1.96-8.99-9-15.66-16.29-20.7-16.12-10.87-34.23-18.5-49.95-30-8.52-6.26-16.29-14.47-19.11-24.92-3.21-12.18-2.24-26 4.84-36.7z"/>
 <path d="m864.09 70.25c4.96-.01 9.93 0 14.91 0v2.5c-2.05 0-4.09.01-6.11.01-.03 5.41-.01 10.83-.01 16.24h-2.76c-.01-5.41.01-10.83-.01-16.24-2.02 0-4.02-.01-6.02-.02z"/>
 <path d="m881.39 70.26c1.12-.01 2.25-.02 3.4-.03 2.14 4.92 4.09 9.93 6.32 14.82 2.15-4.92 4.28-9.84 6.4-14.76 1.15-.03 2.3-.05 3.47-.08.04 6.27.01 12.53.01 18.79-.71 0-2.13 0-2.84-.01-.01-4.77.04-9.55-.04-14.32-2.23 4.72-4.04 9.63-6.33 14.31h-1.62c-2.19-4.69-4.1-9.52-5.93-14.36-.41 4.78-.18 9.59-.24 14.39-.65-.01-1.95-.02-2.61-.03.01-6.24 0-12.48.01-18.72z"/>
 <path d="m503.6 103.14c12.24-8.03 26.83-12.1 41.36-13.01 12.88-.68 27.06 1.82 36.49 11.35 9.73 9.76 12.4 24.19 12.52 37.48.06 29.3.02 58.6.02 87.9-5.75 0-11.51.01-17.26 0-.06-8.07.06-16.14-.07-24.21-4.58 8.1-10.48 15.7-18.61 20.48-10.96 6.86-24.64 8.25-37.13 5.63-9.32-1.95-18.24-7.06-23.58-15.1-6.13-8.92-7.4-20.38-5.55-30.84 1.5-8.86 6.31-17.14 13.51-22.55 9.15-7.03 20.65-9.98 31.89-11.6 13.18-1.93 26.37-3.8 39.54-5.75-.17-10.44-1.42-21.84-8.48-30.07-5.68-6.65-14.86-8.85-23.28-8.43-15.35.28-29.91 7.13-41.39 17.05 0-6.11-.02-12.22.02-18.33m39.27 58.69c-6.84 1.05-13.75 2.25-20.16 4.93-5.55 2.32-10.55 6.56-12.61 12.35-1.95 5.69-2.36 11.96-1.11 17.85 1.64 7.85 7.79 14.34 15.36 16.81 11.14 3.64 24 1.86 33.69-4.77 8.95-5.95 14.84-15.74 17.23-26.1 2.07-8.45 1.29-17.22 1.45-25.83-11.28 1.58-22.57 3.17-33.85 4.76z"/>
 <path d="m643.14 111.14c10.24-11.38 24.75-18.71 39.93-20.49 13.8-1.71 28.14-.09 40.89 5.63.08 5.91.02 11.83.04 17.75-12.25-8.14-27.62-11.47-42.1-8.7-13.51 2.49-25.39 11.63-31.82 23.7-8.89 16.55-9.9 36.75-4.44 54.56 4.1 13.6 14.54 25.45 28.25 29.78 16.73 5.07 35.64 1.47 49.61-8.96-.02 5.49.05 10.99-.05 16.49-13.58 8.09-29.99 10.29-45.51 8.51-16.48-1.91-31.95-11.25-41.12-25.09-9.14-13.52-12.57-30.25-11.7-46.39.81-16.94 6.52-34.08 18.02-46.79z"/>
 <path d="m760.84 112.94c9.25-12.38 23.64-20.96 39.07-22.56 12.39-1.3 25.57.64 36.06 7.71 10.49 6.8 17.23 18.13 20.55 29.98 3.35 11.31 3.63 23.21 3.48 34.93-32.25.02-64.49-.03-96.73.02.06 13.84 3.19 28.49 12.64 39.08 8.42 9.58 21.52 13.92 34.06 13.48 15.27-.09 29.88-6.43 41.78-15.73-.03 5.51.08 11.03-.07 16.55-15.78 11.05-35.72 15.01-54.7 13.13-14.19-1.5-27.92-8.52-36.62-19.96-10.77-14.03-14.39-32.21-14.36-49.57-.15-16.7 4.65-33.68 14.84-47.06m19.24 1.11c-9.84 8.76-14.57 21.8-16.42 34.55 26.35.05 52.7.01 79.06.02-.09-9.63-1.47-19.59-6.41-28.02-3.99-6.94-10.56-12.43-18.3-14.62-12.91-3.67-27.83-1.03-37.93 8.07z"/>
 <path d="m363.7 96.82c9.16-6.48 21.23-7.05 31.79-4.18.03 5.85-.01 11.71.02 17.56-6.56-4.35-15-5.13-22.52-3.24-8.32 2.28-14.73 8.94-18.63 16.41-6.15 11.84-8.25 25.37-8.35 38.58-.02 21.68 0 43.37-.01 65.05h-17v-134h17c.07 9.79-.14 19.57.11 29.35 3.61-9.75 8.64-19.64 17.59-25.53z"/>
 <path d="m178 93c5.76 0 11.52-.01 17.28.01.03 25.97-.05 51.94.04 77.9.33 11.65 1.67 24.18 8.86 33.81 5.68 7.65 15.5 10.97 24.75 10.88 9.9.28 19.83-3.76 26.55-11.05 8.63-9.2 12.15-22.13 12.21-34.51.06-25.68 0-51.36.03-77.03 5.76-.02 11.52-.01 17.28-.01v134c-5.76 0-11.52 0-17.28-.01-.04-7.78.07-15.56-.06-23.34-3.97 6.79-8.52 13.47-15.03 18.08-10.27 7.67-23.77 9.37-36.19 7.67-10.7-1.29-21.22-6.43-27.6-15.33-8.59-11.76-10.59-26.84-10.81-41.04-.07-26.67-.01-53.35-.03-80.03z"/>
</svg>
